<svg xmlns="http://www.w3.org/2000/svg">
  
  <symbol id="icon-arrow-left" viewBox="-50 -50 100 100">
    <title>Alt text here</title>
    <path stroke="currentColor" stroke-width="5" stroke-linecap="round" stroke-linejoin="round" fill="transparent" d="M 10 0, L -30 0 "/>
    <path stroke="currentColor" stroke-width="5" stroke-linecap="round" stroke-linejoin="round" fill="transparent" d="M -10 -20, L -30 0, L -10 20" />
    <path stroke="currentColor" stroke-width="5" stroke-linecap="round" stroke-linejoin="round" fill="transparent" d="M 20 0, L 20 0" />
  </symbol>

  <symbol id="icon-arrow-right" viewBox="-50 -50 100 100">
    <title>Alt text here</title>
    <path stroke="currentColor" stroke-width="5" stroke-linecap="round" stroke-linejoin="round" fill="transparent" d="M -10 0, L 30 0 "/>
    <path stroke="currentColor" stroke-width="5" stroke-linecap="round" stroke-linejoin="round" fill="transparent" d="M 10 -20, L 30 0, L 10 20" />
    <path stroke="currentColor" stroke-width="5" stroke-linecap="round" stroke-linejoin="round" fill="transparent" d="M -20 0, L -20 0" />
  </symbol>

  <symbol id="icon-login" viewBox="-50 -50 100 100">
    <path stroke="currentColor" stroke-width="5" stroke-linecap="round" stroke-linejoin="round" fill="transparent" d="M -20 0, L 15 0 "/>
    <path stroke="currentColor" stroke-width="5" stroke-linecap="round" stroke-linejoin="round" fill="transparent" d="M -5 -20, L 15 0, L -5 20" />
    <path stroke="currentColor" stroke-width="5" stroke-linecap="round" stroke-linejoin="round" fill="transparent" d="M -30 0, L -30 0" />
    <path stroke="currentColor" stroke-width="5" stroke-linecap="round" stroke-linejoin="round" fill="transparent" d="M 20 -30, L 30 -30, L 30 30, L 20 30" />
  </symbol>

  <symbol id="icon-calendar" viewBox="-50 -50 100 100">
    <g>
      <path fill="transparent" stroke="currentColor" stroke-width="5" stroke-linejoin="round" stroke-linecap="round" d="M -30 -40, L -40 -40, L -40 40, L 40, 40, L 40, -40, L 30, -40"/>
      <path fill="transparent" stroke="currentColor" stroke-width="5" stroke-linejoin="round" stroke-linecap="round" d="M -10 -40, L 10 -40"/>
    </g>
    <g>
      <path fill="transparent" stroke="currentColor" stroke-width="5" stroke-linejoin="round" stroke-linecap="round" d="M -20 -45, L -20 -35"/>
      <path fill="transparent" stroke="currentColor" stroke-width="5" stroke-linejoin="round" stroke-linecap="round" d="M 20 -45, L 20 -35"/>
    </g>
    <path fill="transparent" stroke="currentColor" stroke-width="5" stroke-linejoin="round" stroke-linecap="round" d="M -30 -25, L 30, -25"/>
    <g>
      <path fill="transparent" stroke="currentColor" stroke-width="5" stroke-linejoin="round" stroke-linecap="round" d="M -20 -15, L -20 30"/>
      <path fill="transparent" stroke="currentColor" stroke-width="5" stroke-linejoin="round" stroke-linecap="round" d="M 0 -15, L 0 30"/>
      <path fill="transparent" stroke="currentColor" stroke-width="5" stroke-linejoin="round" stroke-linecap="round" d="M 20 -15, L 20 30"/>
      <path fill="transparent" stroke="currentColor" stroke-width="5" stroke-linejoin="round" stroke-linecap="round" d="M -30 -5, L 30, -5"/>
      <path fill="transparent" stroke="currentColor" stroke-width="5" stroke-linejoin="round" stroke-linecap="round" d="M -30 10, L 30, 10"/>
      <path fill="transparent" stroke="currentColor" stroke-width="5" stroke-linejoin="round" stroke-linecap="round" d="M -30 25, L 30, 25"/>
    </g>
  </symbol>

  <symbol id="icon-person" viewBox="-50 -50 100 100">
    <path fill="transparent" stroke="currentColor" stroke-width="5" stroke-linejoin="round" stroke-linecap="round" d="M -20 12, L-20 40, L 20 40, L 20 12"/>
    <path fill="transparent" stroke="currentColor" stroke-width="5" stroke-linejoin="round" stroke-linecap="round" d="M -20 12, L -20 30, L -30 30, L -30 12, Z"/>
    <path fill="transparent" stroke="currentColor" stroke-width="5" stroke-linejoin="round" stroke-linecap="round" d="M 20 12, L 20 30, L 30 30, L 30 12, Z"/>
    <path fill="transparent" stroke="currentColor" stroke-width="5" stroke-linejoin="round" stroke-linecap="round" d="M 0 20, L 0 40"/>
    <path fill="transparent" stroke="currentColor" stroke-width="5" stroke-linejoin="round" stroke-linecap="round" d="M 0 40, L 25 40"/>
    <path fill="transparent" stroke="currentColor" stroke-width="5" stroke-linejoin="round" stroke-linecap="round" d="M 0 40, L -25 40"/>
    <circle fill="transparent" stroke="currentColor" stroke-width="5" cx="0" cy="-10" r="30"></circle>
  </symbol>

  <symbol id="icon-close" viewBox="-50 -50 100 100">
    <path stroke="currentColor" stroke-width="5" stroke-linecap="round" d="M -40 -40, L 40, 40"/>
    <path stroke="currentColor" stroke-width="5" stroke-linecap="round" d="M 40 -40, L -40, 40"/>
  </symbol>

  <symbol id="icon-menu" viewBox="-50 -50 100 100">
    <path stroke="currentColor" stroke-width="5" stroke-linecap="round" d="M -40 -30, L 40, -30"/>
    <path stroke="currentColor" stroke-width="5" stroke-linecap="round" d="M -40 0, L 40, 0"/>
    <path stroke="currentColor" stroke-width="5" stroke-linecap="round" d="M -40 30, L 40, 30"/>
  </symbol>

</svg>  